<?xml version="1.0" encoding="UTF-8"?>
<svg
        width="256"
        height="256"
        viewBox="0 0 128 128"
        xmlns="http://www.w3.org/2000/svg"
>
    <defs>
        <linearGradient id="fluxgateGradient" x1="0" y1="0" x2="1" y2="1">
            <stop offset="0%" stop-color="#37C0C8"/>
            <stop offset="100%" stop-color="#4D6CFF"/>
        </linearGradient>
    </defs>

    <!-- 전체 로고를 중앙으로 이동 -->
    <g transform="translate(64 64)">

        <!-- 클라우드 -->
        <path
                d="
        M -32 8
        C -40 8 -46 2 -46 -6
        C -46 -14 -40 -20 -32 -20
        C -31 -27 -25 -32 -18 -32
        C -12 -32 -7 -29 -4 -24
        C -1 -26 3 -28 8 -28
        C 18 -28 26 -20 26 -10
        C 26 0 18 8 8 8
        L -32 8
        Z
      "
                fill="none"
                stroke="url(#fluxgateGradient)"
                stroke-width="6"
                stroke-linecap="round"
                stroke-linejoin="round"
        />

        <!-- 위 육각형 -->
        <polygon
                points="
        38,-28
        33,-19.34
        23,-19.34
        18,-28
        23,-36.66
        33,-36.66
      "
                fill="none"
                stroke="url(#fluxgateGradient)"
                stroke-width="6"
                stroke-linejoin="round"
        />

        <!-- 아래 육각형 -->
        <polygon
                points="
        38,0
        33,8.66
        23,8.66
        18,0
        23,-8.66
        33,-8.66
      "
                fill="none"
                stroke="url(#fluxgateGradient)"
                stroke-width="6"
                stroke-linejoin="round"
        />

    </g>
</svg>
